<svg xmlns="http://www.w3.org/2000/svg" width="980" height="360" viewBox="0 0 980 360">
  <style>
    
    :root {
      --sky-top: #7dd3fc;
      --sky-bottom: #e0f2fe;
      --stars-opacity: 0;
      --sun-opacity: 1;
      --moon-opacity: 0;
      --window-glow: #ffffff;
      --window-glow-op: 0.3;
      --bird-opacity: 1;
      --plane-opacity: 0;
      --street-lamp-glow: 0;
      --car-headlight-glow: 0;
    }

    @media (prefers-color-scheme: dark) {
      :root {
        --sky-top: #070b19;
        --sky-bottom: #1e1b4b;
        --stars-opacity: 0.85;
        --sun-opacity: 0;
        --moon-opacity: 0.9;
        --window-glow: #fef08a;
        --window-glow-op: 0.95;
        --bird-opacity: 0;
        --plane-opacity: 1;
        --street-lamp-glow: 0.8;
        --car-headlight-glow: 0.6;
      }
    }
    @media (prefers-color-scheme: light) {
      :root {
        --sky-top: #7dd3fc;
        --sky-bottom: #e0f2fe;
        --stars-opacity: 0;
        --sun-opacity: 1;
        --moon-opacity: 0;
        --window-glow: #ffffff;
        --window-glow-op: 0.3;
        --bird-opacity: 1;
        --plane-opacity: 0;
        --street-lamp-glow: 0;
        --car-headlight-glow: 0;
      }
    }
  </style>
<defs><linearGradient id="skyGrad" x1="0" y1="0" x2="0" y2="1"><stop offset="0%" stop-color="var(--sky-top)"/><stop offset="100%" stop-color="var(--sky-bottom)"/></linearGradient><filter id="sunGlow"><feGaussianBlur stdDeviation="6" result="blur"/><feMerge><feMergeNode in="blur"/><feMergeNode in="SourceGraphic"/></feMerge></filter><filter id="moonGlow"><feGaussianBlur stdDeviation="3" result="blur"/><feMerge><feMergeNode in="blur"/><feMergeNode in="SourceGraphic"/></feMerge></filter></defs>
<rect width="980" height="360" fill="url(#skyGrad)"/>
<circle cx="120" cy="80" r="22" fill="#f59e0b" opacity="var(--sun-opacity)" filter="url(#sunGlow)"/>
<path d="M 120 70 A 15 15 0 1 0 135 85 A 12 12 0 1 1 120 70" fill="#e2e8f0" opacity="var(--moon-opacity)" filter="url(#moonGlow)"/>
<g opacity="var(--stars-opacity)">
<circle cx="654" cy="57" r="0.8" fill="#ffffff" opacity="0.22"/>
<circle cx="228" cy="71" r="1.2" fill="#ffffff" opacity="0.72"/>
<circle cx="913" cy="44" r="0.5" fill="#ffffff" opacity="0.61"/>
<circle cx="95" cy="111" r="1.1" fill="#ffffff" opacity="0.36"/>
<circle cx="574" cy="101" r="1.2" fill="#ffffff" opacity="0.7"/>
<circle cx="429" cy="112" r="0.8" fill="#ffffff" opacity="0.51"/>
<circle cx="890" cy="3" r="0.7" fill="#ffffff" opacity="0.73"/>
<circle cx="432" cy="174" r="0.7" fill="#ffffff" opacity="0.39"/>
<circle cx="781" cy="172" r="0.9" fill="#ffffff" opacity="0.27"/>
<circle cx="367" cy="176" r="1.3" fill="#ffffff" opacity="0.62"/>
<circle cx="747" cy="235" r="1.5" fill="#ffffff" opacity="0.58"/>
<circle cx="387" cy="40" r="1.3" fill="#ffffff" opacity="0.59"/>
<circle cx="633" cy="185" r="1.2" fill="#ffffff" opacity="0.6"/>
<circle cx="46" cy="116" r="1.5" fill="#ffffff" opacity="0.74"/>
<circle cx="875" cy="119" r="0.9" fill="#ffffff" opacity="0.81"/>
<circle cx="464" cy="186" r="0.9" fill="#ffffff" opacity="0.31"/>
<circle cx="686" cy="136" r="1.2" fill="#ffffff" opacity="0.69"/>
<circle cx="73" cy="87" r="0.7" fill="#ffffff" opacity="0.57"/>
<circle cx="473" cy="194" r="1.4" fill="#ffffff" opacity="0.39"/>
<circle cx="704" cy="112" r="1.3" fill="#ffffff" opacity="0.68"/>
<circle cx="794" cy="28" r="0.5" fill="#ffffff" opacity="0.36"/>
<circle cx="323" cy="205" r="0.7" fill="#ffffff" opacity="0.39"/>
<circle cx="965" cy="161" r="1.0" fill="#ffffff" opacity="0.35"/>
<circle cx="905" cy="234" r="0.6" fill="#ffffff" opacity="0.3"/>
<circle cx="762" cy="134" r="0.9" fill="#ffffff" opacity="0.72"/>
<circle cx="597" cy="204" r="1.5" fill="#ffffff" opacity="0.45"/>
<circle cx="141" cy="260" r="1.3" fill="#ffffff" opacity="0.55"/>
<circle cx="881" cy="56" r="0.7" fill="#ffffff" opacity="0.31"/>
<circle cx="696" cy="216" r="0.9" fill="#ffffff" opacity="0.62"/>
<circle cx="610" cy="239" r="1.5" fill="#ffffff" opacity="0.57"/>
<circle cx="881" cy="5" r="0.6" fill="#ffffff" opacity="0.68"/>
<circle cx="906" cy="136" r="0.8" fill="#ffffff" opacity="0.74"/>
<circle cx="300" cy="222" r="0.5" fill="#ffffff" opacity="0.31"/>
<circle cx="739" cy="134" r="1.3" fill="#ffffff" opacity="0.88"/>
<circle cx="519" cy="54" r="0.8" fill="#ffffff" opacity="0.81"/>
<circle cx="654" cy="259" r="0.7" fill="#ffffff" opacity="0.63"/>
<circle cx="780" cy="82" r="1.3" fill="#ffffff" opacity="0.58"/>
<circle cx="543" cy="0" r="1.0" fill="#ffffff" opacity="0.62"/>
<circle cx="114" cy="185" r="1.3" fill="#ffffff" opacity="0.82"/>
<circle cx="314" cy="122" r="1.4" fill="#ffffff" opacity="0.24"/>
<circle cx="969" cy="40" r="1.0" fill="#ffffff" opacity="0.26"/>
<circle cx="70" cy="64" r="1.0" fill="#ffffff" opacity="0.29"/>
<circle cx="562" cy="84" r="1.4" fill="#ffffff" opacity="0.39"/>
<circle cx="433" cy="108" r="1.3" fill="#ffffff" opacity="0.85"/>
<circle cx="706" cy="102" r="0.9" fill="#ffffff" opacity="0.7"/>
<circle cx="687" cy="191" r="1.0" fill="#ffffff" opacity="0.51"/>
<circle cx="123" cy="126" r="0.8" fill="#ffffff" opacity="0.36"/>
<circle cx="602" cy="117" r="0.5" fill="#ffffff" opacity="0.61"/>
<circle cx="724" cy="30" r="1.4" fill="#ffffff" opacity="0.36"/>
<circle cx="880" cy="169" r="0.7" fill="#ffffff" opacity="0.25"/>
<circle cx="685" cy="248" r="0.6" fill="#ffffff" opacity="0.35"/>
<circle cx="957" cy="242" r="1.0" fill="#ffffff" opacity="0.37"/>
<circle cx="416" cy="97" r="1.2" fill="#ffffff" opacity="0.27"/>
<circle cx="362" cy="216" r="1.4" fill="#ffffff" opacity="0.49"/>
<circle cx="55" cy="50" r="1.2" fill="#ffffff" opacity="0.24"/>
<circle cx="819" cy="55" r="0.7" fill="#ffffff" opacity="0.37"/>
<circle cx="459" cy="71" r="0.8" fill="#ffffff" opacity="0.5"/>
<circle cx="255" cy="38" r="1.4" fill="#ffffff" opacity="0.51"/>
<circle cx="563" cy="50" r="1.5" fill="#ffffff" opacity="0.24"/>
<circle cx="856" cy="7" r="1.4" fill="#ffffff" opacity="0.88"/>
<circle cx="869" cy="121" r="1.0" fill="#ffffff" opacity="0.32"/>
<circle cx="218" cy="205" r="0.7" fill="#ffffff" opacity="0.83"/>
<circle cx="2" cy="199" r="1.3" fill="#ffffff" opacity="0.39"/>
<circle cx="465" cy="146" r="1.5" fill="#ffffff" opacity="0.5"/>
<circle cx="802" cy="249" r="0.8" fill="#ffffff" opacity="0.31"/>
<circle cx="59" cy="31" r="0.6" fill="#ffffff" opacity="0.72"/>
<circle cx="598" cy="244" r="1.4" fill="#ffffff" opacity="0.55"/>
<circle cx="161" cy="29" r="0.6" fill="#ffffff" opacity="0.87"/>
<circle cx="190" cy="35" r="1.2" fill="#ffffff" opacity="0.62"/>
<circle cx="240" cy="206" r="1.4" fill="#ffffff" opacity="0.28"/>
<circle cx="252" cy="20" r="0.9" fill="#ffffff" opacity="0.63"/>
<circle cx="597" cy="267" r="0.8" fill="#ffffff" opacity="0.42"/>
<circle cx="685" cy="160" r="0.9" fill="#ffffff" opacity="0.37"/>
<circle cx="687" cy="153" r="1.4" fill="#ffffff" opacity="0.52"/>
<circle cx="958" cy="37" r="1.1" fill="#ffffff" opacity="0.21"/>
<circle cx="576" cy="51" r="0.7" fill="#ffffff" opacity="0.25"/>
<circle cx="271" cy="67" r="1.4" fill="#ffffff" opacity="0.85"/>
<circle cx="900" cy="125" r="0.7" fill="#ffffff" opacity="0.46"/>
<circle cx="853" cy="154" r="1.5" fill="#ffffff" opacity="0.63"/>
<circle cx="669" cy="270" r="1.3" fill="#ffffff" opacity="0.21"/>
<circle cx="306" cy="53" r="0.6" fill="#ffffff" opacity="0.86"/>
<circle cx="118" cy="54" r="0.7" fill="#ffffff" opacity="0.72"/>
<circle cx="288" cy="107" r="0.7" fill="#ffffff" opacity="0.7"/>
<circle cx="649" cy="135" r="0.8" fill="#ffffff" opacity="0.55"/>
<circle cx="929" cy="26" r="0.9" fill="#ffffff" opacity="0.26"/>
<circle cx="283" cy="22" r="1.3" fill="#ffffff" opacity="0.2"/>
<circle cx="652" cy="134" r="0.9" fill="#ffffff" opacity="0.31"/>
<circle cx="722" cy="218" r="0.6" fill="#ffffff" opacity="0.59"/>
<circle cx="967" cy="76" r="1.3" fill="#ffffff" opacity="0.58"/>
<circle cx="596" cy="75" r="0.5" fill="#ffffff" opacity="0.5"/>
</g>
<g opacity="var(--bird-opacity)">
  <path d="M 0 0 Q 3 -5 6 0 Q 9 -5 12 0 Q 9 -2 6 -1 Q 3 -2 0 0 Z" fill="#334155">
    <animateTransform attributeName="transform" type="translate" from="-40 80" to="1020 60" dur="15s" repeatCount="indefinite"/>
  </path>
  <path d="M 0 0 Q 3 -5 6 0 Q 9 -5 12 0 Q 9 -2 6 -1 Q 3 -2 0 0 Z" fill="#334155">
    <animateTransform attributeName="transform" type="translate" from="-150 120" to="1020 100" dur="18s" repeatCount="indefinite"/>
  </path>
</g>
<g opacity="var(--plane-opacity)">
  <animateTransform attributeName="transform" type="translate" from="-120 40" to="1100 45" dur="14s" repeatCount="indefinite"/>
  <g transform="scale(-1, 1)">
    <path d="M 0 0 L 15 -2 L 20 -7 L 23 -7 L 21 -2 L 35 -2 L 37 -4 L 39 -4 L 38 1 L 18 1 L 16 4 L 13 4 L 14 1 L 0 0 Z" fill="#94a3b8"/>
    <circle cx="38" cy="-4" r="1.5" fill="#ef4444">
      <animate attributeName="opacity" values="0;1;0" dur="0.8s" repeatCount="indefinite"/>
    </circle>
    <circle cx="21" cy="-7" r="1.5" fill="#22c55e">
      <animate attributeName="opacity" values="0;1;0" dur="1s" repeatCount="indefinite"/>
    </circle>
  </g>
</g>
<text x="490" y="32" text-anchor="middle" font-size="16" fill="#f8fafc" font-family="monospace" font-weight="bold">&#x1F3D9;&#xFE0F; GitHub City Skyline — June 2026</text>
<rect x="0" y="290" width="980" height="8" fill="#475569"/>
<rect x="0" y="298" width="980" height="28" fill="#1e293b"/>
<line x1="0" y1="312" x2="980" y2="312" stroke="#e2e8f0" stroke-width="2" stroke-dasharray="12,12"/>
<g>
<title>Dia 1: 0 commits</title>
<line x1="33" y1="50" x2="33" y2="290" stroke="#334155" stroke-width="0.5" stroke-dasharray="2,4"/>
<text x="33" y="310" text-anchor="middle" font-size="10" fill="#94a3b8" font-weight="normal" font-family="monospace">1</text>
</g>
<g>
<title>Dia 2: 0 commits</title>
<line x1="63" y1="50" x2="63" y2="290" stroke="#334155" stroke-width="0.5" stroke-dasharray="2,4"/>
<text x="63" y="310" text-anchor="middle" font-size="10" fill="#94a3b8" font-weight="normal" font-family="monospace">2</text>
</g>
<g>
<title>Dia 3: 0 commits</title>
<line x1="93" y1="50" x2="93" y2="290" stroke="#334155" stroke-width="0.5" stroke-dasharray="2,4"/>
<text x="93" y="310" text-anchor="middle" font-size="10" fill="#94a3b8" font-weight="normal" font-family="monospace">3</text>
</g>
<g>
<title>Dia 4: 0 commits</title>
<line x1="123" y1="50" x2="123" y2="290" stroke="#334155" stroke-width="0.5" stroke-dasharray="2,4"/>
<text x="123" y="310" text-anchor="middle" font-size="10" fill="#94a3b8" font-weight="normal" font-family="monospace">4</text>
</g>
<g>
<title>Dia 5: 0 commits</title>
<line x1="153" y1="50" x2="153" y2="290" stroke="#334155" stroke-width="0.5" stroke-dasharray="2,4"/>
<line x1="153" y1="290" x2="153" y2="266" stroke="#64748b" stroke-width="1.5"/>
<path d="M 153 266 Q 158 264 161 268" fill="none" stroke="#64748b" stroke-width="1.5"/>
<circle cx="161" cy="269" r="2" fill="#fef08a"/>
<polygon points="161,270 149,290 173,290" fill="#fef08a" opacity="var(--street-lamp-glow)" style="mix-blend-mode: screen;"/>
<text x="153" y="310" text-anchor="middle" font-size="10" fill="#94a3b8" font-weight="normal" font-family="monospace">5</text>
</g>
<g>
<title>Dia 6: 0 commits</title>
<line x1="183" y1="50" x2="183" y2="290" stroke="#334155" stroke-width="0.5" stroke-dasharray="2,4"/>
<text x="183" y="310" text-anchor="middle" font-size="10" fill="#94a3b8" font-weight="normal" font-family="monospace">6</text>
</g>
<g>
<title>Dia 7: 24 commits</title>
<line x1="213" y1="50" x2="213" y2="290" stroke="#334155" stroke-width="0.5" stroke-dasharray="2,4"/>
<defs><linearGradient id="grad_20260607" x1="0" y1="0" x2="0" y2="1"><stop offset="0%" stop-color="#0d9488"/><stop offset="100%" stop-color="#115e59"/></linearGradient></defs>
<rect x="200" y="-20" width="26" height="310" fill="url(#grad_20260607)" rx="1"/>
<rect x="222" y="-20" width="4" height="310" fill="#000000" opacity="0.2"/>
<rect x="210" y="282" width="6" height="8" fill="#1e293b"/>
<rect x="211" y="283" width="2" height="7" fill="var(--window-glow)" opacity="var(--window-glow-op)"/>
<rect x="204" y="-12" width="6" height="8" fill="var(--window-glow)" opacity="var(--window-glow-op)"/>
<rect x="203" y="-4" width="8" height="2" fill="#cbd5e1"/>
<rect x="214" y="-4" width="8" height="2" fill="#cbd5e1"/>
<rect x="203" y="10" width="8" height="2" fill="#cbd5e1"/>
<rect x="214" y="10" width="8" height="2" fill="#cbd5e1"/>
<rect x="203" y="24" width="8" height="2" fill="#cbd5e1"/>
<rect x="215" y="16" width="6" height="8" fill="var(--window-glow)" opacity="var(--window-glow-op)"/>
<rect x="214" y="24" width="8" height="2" fill="#cbd5e1"/>
<rect x="204" y="30" width="6" height="8" fill="var(--window-glow)" opacity="var(--window-glow-op)"/>
<rect x="203" y="38" width="8" height="2" fill="#cbd5e1"/>
<rect x="215" y="30" width="6" height="8" fill="var(--window-glow)" opacity="var(--window-glow-op)"/>
<rect x="214" y="38" width="8" height="2" fill="#cbd5e1"/>
<rect x="204" y="44" width="6" height="8" fill="var(--window-glow)" opacity="var(--window-glow-op)"/>
<rect x="203" y="52" width="8" height="2" fill="#cbd5e1"/>
<rect x="215" y="44" width="6" height="8" fill="var(--window-glow)" opacity="var(--window-glow-op)"/>
<rect x="214" y="52" width="8" height="2" fill="#cbd5e1"/>
<rect x="204" y="58" width="6" height="8" fill="var(--window-glow)" opacity="var(--window-glow-op)"/>
<rect x="203" y="66" width="8" height="2" fill="#cbd5e1"/>
<rect x="214" y="66" width="8" height="2" fill="#cbd5e1"/>
<rect x="204" y="72" width="6" height="8" fill="var(--window-glow)" opacity="var(--window-glow-op)"/>
<rect x="203" y="80" width="8" height="2" fill="#cbd5e1"/>
<rect x="215" y="72" width="6" height="8" fill="var(--window-glow)" opacity="var(--window-glow-op)"/>
<rect x="214" y="80" width="8" height="2" fill="#cbd5e1"/>
<rect x="204" y="86" width="6" height="8" fill="var(--window-glow)" opacity="var(--window-glow-op)"/>
<rect x="203" y="94" width="8" height="2" fill="#cbd5e1"/>
<rect x="215" y="86" width="6" height="8" fill="var(--window-glow)" opacity="var(--window-glow-op)"/>
<rect x="214" y="94" width="8" height="2" fill="#cbd5e1"/>
<rect x="204" y="100" width="6" height="8" fill="var(--window-glow)" opacity="var(--window-glow-op)"/>
<rect x="203" y="108" width="8" height="2" fill="#cbd5e1"/>
<rect x="214" y="108" width="8" height="2" fill="#cbd5e1"/>
<rect x="204" y="114" width="6" height="8" fill="var(--window-glow)" opacity="var(--window-glow-op)"/>
<rect x="203" y="122" width="8" height="2" fill="#cbd5e1"/>
<rect x="215" y="114" width="6" height="8" fill="var(--window-glow)" opacity="var(--window-glow-op)"/>
<rect x="214" y="122" width="8" height="2" fill="#cbd5e1"/>
<rect x="203" y="136" width="8" height="2" fill="#cbd5e1"/>
<rect x="215" y="128" width="6" height="8" fill="var(--window-glow)" opacity="var(--window-glow-op)"/>
<rect x="214" y="136" width="8" height="2" fill="#cbd5e1"/>
<rect x="204" y="142" width="6" height="8" fill="var(--window-glow)" opacity="var(--window-glow-op)"/>
<rect x="203" y="150" width="8" height="2" fill="#cbd5e1"/>
<rect x="215" y="142" width="6" height="8" fill="var(--window-glow)" opacity="var(--window-glow-op)"/>
<rect x="214" y="150" width="8" height="2" fill="#cbd5e1"/>
<rect x="203" y="164" width="8" height="2" fill="#cbd5e1"/>
<rect x="215" y="156" width="6" height="8" fill="var(--window-glow)" opacity="var(--window-glow-op)"/>
<rect x="214" y="164" width="8" height="2" fill="#cbd5e1"/>
<rect x="204" y="170" width="6" height="8" fill="var(--window-glow)" opacity="var(--window-glow-op)"/>
<rect x="203" y="178" width="8" height="2" fill="#cbd5e1"/>
<rect x="215" y="170" width="6" height="8" fill="var(--window-glow)" opacity="var(--window-glow-op)"/>
<rect x="214" y="178" width="8" height="2" fill="#cbd5e1"/>
<rect x="204" y="184" width="6" height="8" fill="var(--window-glow)" opacity="var(--window-glow-op)"/>
<rect x="203" y="192" width="8" height="2" fill="#cbd5e1"/>
<rect x="215" y="184" width="6" height="8" fill="var(--window-glow)" opacity="var(--window-glow-op)"/>
<rect x="214" y="192" width="8" height="2" fill="#cbd5e1"/>
<rect x="204" y="198" width="6" height="8" fill="var(--window-glow)" opacity="var(--window-glow-op)"/>
<rect x="203" y="206" width="8" height="2" fill="#cbd5e1"/>
<rect x="214" y="206" width="8" height="2" fill="#cbd5e1"/>
<rect x="204" y="212" width="6" height="8" fill="var(--window-glow)" opacity="var(--window-glow-op)"/>
<rect x="203" y="220" width="8" height="2" fill="#cbd5e1"/>
<rect x="215" y="212" width="6" height="8" fill="var(--window-glow)" opacity="var(--window-glow-op)"/>
<rect x="214" y="220" width="8" height="2" fill="#cbd5e1"/>
<rect x="204" y="226" width="6" height="8" fill="var(--window-glow)" opacity="var(--window-glow-op)"/>
<rect x="203" y="234" width="8" height="2" fill="#cbd5e1"/>
<rect x="215" y="226" width="6" height="8" fill="var(--window-glow)" opacity="var(--window-glow-op)"/>
<rect x="214" y="234" width="8" height="2" fill="#cbd5e1"/>
<rect x="203" y="248" width="8" height="2" fill="#cbd5e1"/>
<rect x="215" y="240" width="6" height="8" fill="var(--window-glow)" opacity="var(--window-glow-op)"/>
<rect x="214" y="248" width="8" height="2" fill="#cbd5e1"/>
<path d="M 202 -20 A 11 11 0 0 1 224 -20 Z" fill="#0f766e"/>
<rect x="206" y="42" width="14" height="10" fill="#f59e0b" rx="2"/>
<text x="213" y="50" text-anchor="middle" font-size="8" fill="#0f172a" font-weight="bold" font-family="monospace">24</text>
<text x="213" y="310" text-anchor="middle" font-size="10" fill="#94a3b8" font-weight="normal" font-family="monospace">7</text>
</g>
<g>
<title>Dia 8: 16 commits</title>
<line x1="243" y1="50" x2="243" y2="290" stroke="#334155" stroke-width="0.5" stroke-dasharray="2,4"/>
<defs><linearGradient id="grad_20260608" x1="0" y1="0" x2="0" y2="1"><stop offset="0%" stop-color="#3b82f6"/><stop offset="100%" stop-color="#1d4ed8"/></linearGradient></defs>
<rect x="230" y="-20" width="26" height="310" fill="url(#grad_20260608)" rx="1"/>
<rect x="252" y="-20" width="4" height="310" fill="#000000" opacity="0.2"/>
<rect x="240" y="282" width="6" height="8" fill="#1e293b"/>
<rect x="241" y="283" width="2" height="7" fill="var(--window-glow)" opacity="var(--window-glow-op)"/>
<rect x="233" y="-12" width="4" height="6" fill="var(--window-glow)" opacity="var(--window-glow-op)"/>
<rect x="240" y="-12" width="4" height="6" fill="var(--window-glow)" opacity="var(--window-glow-op)"/>
<rect x="247" y="-12" width="4" height="6" fill="var(--window-glow)" opacity="var(--window-glow-op)"/>
<rect x="233" y="-3" width="4" height="6" fill="var(--window-glow)" opacity="var(--window-glow-op)"/>
<rect x="240" y="-3" width="4" height="6" fill="var(--window-glow)" opacity="var(--window-glow-op)"/>
<rect x="247" y="-3" width="4" height="6" fill="var(--window-glow)" opacity="var(--window-glow-op)"/>
<rect x="233" y="6" width="4" height="6" fill="var(--window-glow)" opacity="var(--window-glow-op)"/>
<rect x="240" y="6" width="4" height="6" fill="var(--window-glow)" opacity="var(--window-glow-op)"/>
<rect x="247" y="6" width="4" height="6" fill="var(--window-glow)" opacity="var(--window-glow-op)"/>
<rect x="233" y="15" width="4" height="6" fill="var(--window-glow)" opacity="var(--window-glow-op)"/>
<rect x="247" y="15" width="4" height="6" fill="var(--window-glow)" opacity="var(--window-glow-op)"/>
<rect x="240" y="24" width="4" height="6" fill="var(--window-glow)" opacity="var(--window-glow-op)"/>
<rect x="247" y="24" width="4" height="6" fill="var(--window-glow)" opacity="var(--window-glow-op)"/>
<rect x="233" y="33" width="4" height="6" fill="var(--window-glow)" opacity="var(--window-glow-op)"/>
<rect x="240" y="33" width="4" height="6" fill="var(--window-glow)" opacity="var(--window-glow-op)"/>
<rect x="247" y="33" width="4" height="6" fill="var(--window-glow)" opacity="var(--window-glow-op)"/>
<rect x="233" y="42" width="4" height="6" fill="var(--window-glow)" opacity="var(--window-glow-op)"/>
<rect x="240" y="42" width="4" height="6" fill="var(--window-glow)" opacity="var(--window-glow-op)"/>
<rect x="247" y="42" width="4" height="6" fill="var(--window-glow)" opacity="var(--window-glow-op)"/>
<rect x="233" y="51" width="4" height="6" fill="var(--window-glow)" opacity="var(--window-glow-op)"/>
<rect x="240" y="51" width="4" height="6" fill="var(--window-glow)" opacity="var(--window-glow-op)"/>
<rect x="247" y="51" width="4" height="6" fill="var(--window-glow)" opacity="var(--window-glow-op)"/>
<rect x="233" y="60" width="4" height="6" fill="var(--window-glow)" opacity="var(--window-glow-op)"/>
<rect x="247" y="60" width="4" height="6" fill="var(--window-glow)" opacity="var(--window-glow-op)"/>
<rect x="233" y="69" width="4" height="6" fill="var(--window-glow)" opacity="var(--window-glow-op)"/>
<rect x="240" y="69" width="4" height="6" fill="var(--window-glow)" opacity="var(--window-glow-op)"/>
<rect x="247" y="69" width="4" height="6" fill="var(--window-glow)" opacity="var(--window-glow-op)"/>
<rect x="240" y="78" width="4" height="6" fill="var(--window-glow)" opacity="var(--window-glow-op)"/>
<rect x="247" y="78" width="4" height="6" fill="var(--window-glow)" opacity="var(--window-glow-op)"/>
<rect x="233" y="87" width="4" height="6" fill="var(--window-glow)" opacity="var(--window-glow-op)"/>
<rect x="240" y="87" width="4" height="6" fill="var(--window-glow)" opacity="var(--window-glow-op)"/>
<rect x="247" y="87" width="4" height="6" fill="var(--window-glow)" opacity="var(--window-glow-op)"/>
<rect x="233" y="96" width="4" height="6" fill="var(--window-glow)" opacity="var(--window-glow-op)"/>
<rect x="240" y="96" width="4" height="6" fill="var(--window-glow)" opacity="var(--window-glow-op)"/>
<rect x="247" y="96" width="4" height="6" fill="var(--window-glow)" opacity="var(--window-glow-op)"/>
<rect x="233" y="105" width="4" height="6" fill="var(--window-glow)" opacity="var(--window-glow-op)"/>
<rect x="247" y="105" width="4" height="6" fill="var(--window-glow)" opacity="var(--window-glow-op)"/>
<rect x="233" y="114" width="4" height="6" fill="var(--window-glow)" opacity="var(--window-glow-op)"/>
<rect x="247" y="114" width="4" height="6" fill="var(--window-glow)" opacity="var(--window-glow-op)"/>
<rect x="233" y="123" width="4" height="6" fill="var(--window-glow)" opacity="var(--window-glow-op)"/>
<rect x="240" y="123" width="4" height="6" fill="var(--window-glow)" opacity="var(--window-glow-op)"/>
<rect x="247" y="123" width="4" height="6" fill="var(--window-glow)" opacity="var(--window-glow-op)"/>
<rect x="240" y="132" width="4" height="6" fill="var(--window-glow)" opacity="var(--window-glow-op)"/>
<rect x="247" y="132" width="4" height="6" fill="var(--window-glow)" opacity="var(--window-glow-op)"/>
<rect x="233" y="141" width="4" height="6" fill="var(--window-glow)" opacity="var(--window-glow-op)"/>
<rect x="240" y="141" width="4" height="6" fill="var(--window-glow)" opacity="var(--window-glow-op)"/>
<rect x="247" y="141" width="4" height="6" fill="var(--window-glow)" opacity="var(--window-glow-op)"/>
<rect x="233" y="150" width="4" height="6" fill="var(--window-glow)" opacity="var(--window-glow-op)"/>
<rect x="240" y="150" width="4" height="6" fill="var(--window-glow)" opacity="var(--window-glow-op)"/>
<rect x="247" y="150" width="4" height="6" fill="var(--window-glow)" opacity="var(--window-glow-op)"/>
<rect x="233" y="159" width="4" height="6" fill="var(--window-glow)" opacity="var(--window-glow-op)"/>
<rect x="240" y="159" width="4" height="6" fill="var(--window-glow)" opacity="var(--window-glow-op)"/>
<rect x="247" y="159" width="4" height="6" fill="var(--window-glow)" opacity="var(--window-glow-op)"/>
<rect x="233" y="168" width="4" height="6" fill="var(--window-glow)" opacity="var(--window-glow-op)"/>
<rect x="240" y="168" width="4" height="6" fill="var(--window-glow)" opacity="var(--window-glow-op)"/>
<rect x="247" y="168" width="4" height="6" fill="var(--window-glow)" opacity="var(--window-glow-op)"/>
<rect x="233" y="177" width="4" height="6" fill="var(--window-glow)" opacity="var(--window-glow-op)"/>
<rect x="247" y="177" width="4" height="6" fill="var(--window-glow)" opacity="var(--window-glow-op)"/>
<rect x="240" y="186" width="4" height="6" fill="var(--window-glow)" opacity="var(--window-glow-op)"/>
<rect x="247" y="186" width="4" height="6" fill="var(--window-glow)" opacity="var(--window-glow-op)"/>
<rect x="240" y="195" width="4" height="6" fill="var(--window-glow)" opacity="var(--window-glow-op)"/>
<rect x="247" y="195" width="4" height="6" fill="var(--window-glow)" opacity="var(--window-glow-op)"/>
<rect x="233" y="204" width="4" height="6" fill="var(--window-glow)" opacity="var(--window-glow-op)"/>
<rect x="240" y="204" width="4" height="6" fill="var(--window-glow)" opacity="var(--window-glow-op)"/>
<rect x="247" y="204" width="4" height="6" fill="var(--window-glow)" opacity="var(--window-glow-op)"/>
<rect x="233" y="213" width="4" height="6" fill="var(--window-glow)" opacity="var(--window-glow-op)"/>
<rect x="240" y="213" width="4" height="6" fill="var(--window-glow)" opacity="var(--window-glow-op)"/>
<rect x="247" y="213" width="4" height="6" fill="var(--window-glow)" opacity="var(--window-glow-op)"/>
<rect x="233" y="222" width="4" height="6" fill="var(--window-glow)" opacity="var(--window-glow-op)"/>
<rect x="240" y="222" width="4" height="6" fill="var(--window-glow)" opacity="var(--window-glow-op)"/>
<rect x="247" y="222" width="4" height="6" fill="var(--window-glow)" opacity="var(--window-glow-op)"/>
<rect x="233" y="231" width="4" height="6" fill="var(--window-glow)" opacity="var(--window-glow-op)"/>
<rect x="240" y="231" width="4" height="6" fill="var(--window-glow)" opacity="var(--window-glow-op)"/>
<rect x="247" y="231" width="4" height="6" fill="var(--window-glow)" opacity="var(--window-glow-op)"/>
<rect x="240" y="240" width="4" height="6" fill="var(--window-glow)" opacity="var(--window-glow-op)"/>
<line x1="243" y1="-20" x2="243" y2="-35" stroke="#94a3b8" stroke-width="1.5"/>
<circle cx="243" cy="-35" r="2" fill="#ef4444"/>
<rect x="236" y="42" width="14" height="10" fill="#f59e0b" rx="2"/>
<text x="243" y="50" text-anchor="middle" font-size="8" fill="#0f172a" font-weight="bold" font-family="monospace">16</text>
<text x="243" y="310" text-anchor="middle" font-size="10" fill="#94a3b8" font-weight="normal" font-family="monospace">8</text>
</g>
<g>
<title>Dia 9: 2 commits</title>
<line x1="273" y1="50" x2="273" y2="290" stroke="#334155" stroke-width="0.5" stroke-dasharray="2,4"/>
<defs><linearGradient id="grad_20260609" x1="0" y1="0" x2="0" y2="1"><stop offset="0%" stop-color="#b45309"/><stop offset="100%" stop-color="#78350f"/></linearGradient></defs>
<rect x="260" y="230" width="26" height="60" fill="url(#grad_20260609)" rx="1"/>
<rect x="282" y="230" width="4" height="60" fill="#000000" opacity="0.2"/>
<rect x="270" y="282" width="6" height="8" fill="#1e293b"/>
<rect x="271" y="283" width="2" height="7" fill="var(--window-glow)" opacity="var(--window-glow-op)"/>
<path d="M 275 246 L 275 241 A 3.0 3.0 0 0 1 281 241 L 281 246 Z" fill="var(--window-glow)" opacity="var(--window-glow-op)"/>
<path d="M 264 257 L 264 252 A 3.0 3.0 0 0 1 270 252 L 270 257 Z" fill="var(--window-glow)" opacity="var(--window-glow-op)"/>
<path d="M 264 268 L 264 263 A 3.0 3.0 0 0 1 270 263 L 270 268 Z" fill="var(--window-glow)" opacity="var(--window-glow-op)"/>
<path d="M 275 268 L 275 263 A 3.0 3.0 0 0 1 281 263 L 281 268 Z" fill="var(--window-glow)" opacity="var(--window-glow-op)"/>
<polygon points="258,230 273,220 288,230" fill="#92400e" stroke="#1e293b" stroke-width="1"/>
<rect x="266" y="214" width="14" height="10" fill="#f59e0b" rx="2"/>
<text x="273" y="222" text-anchor="middle" font-size="8" fill="#0f172a" font-weight="bold" font-family="monospace">2</text>
<text x="273" y="310" text-anchor="middle" font-size="10" fill="#94a3b8" font-weight="normal" font-family="monospace">9</text>
</g>
<g>
<title>Dia 10: 0 commits</title>
<line x1="303" y1="50" x2="303" y2="290" stroke="#334155" stroke-width="0.5" stroke-dasharray="2,4"/>
<line x1="303" y1="290" x2="303" y2="266" stroke="#64748b" stroke-width="1.5"/>
<path d="M 303 266 Q 308 264 311 268" fill="none" stroke="#64748b" stroke-width="1.5"/>
<circle cx="311" cy="269" r="2" fill="#fef08a"/>
<polygon points="311,270 299,290 323,290" fill="#fef08a" opacity="var(--street-lamp-glow)" style="mix-blend-mode: screen;"/>
<text x="303" y="310" text-anchor="middle" font-size="10" fill="#94a3b8" font-weight="normal" font-family="monospace">10</text>
</g>
<g>
<title>Dia 11: 0 commits</title>
<line x1="333" y1="50" x2="333" y2="290" stroke="#334155" stroke-width="0.5" stroke-dasharray="2,4"/>
<text x="333" y="310" text-anchor="middle" font-size="10" fill="#94a3b8" font-weight="normal" font-family="monospace">11</text>
</g>
<g>
<title>Dia 12: 0 commits</title>
<line x1="363" y1="50" x2="363" y2="290" stroke="#334155" stroke-width="0.5" stroke-dasharray="2,4"/>
<text x="363" y="310" text-anchor="middle" font-size="10" fill="#94a3b8" font-weight="normal" font-family="monospace">12</text>
</g>
<g>
<title>Dia 13: 0 commits</title>
<line x1="393" y1="50" x2="393" y2="290" stroke="#334155" stroke-width="0.5" stroke-dasharray="2,4"/>
<text x="393" y="310" text-anchor="middle" font-size="10" fill="#f59e0b" font-weight="bold" font-family="monospace">13</text>
<polygon points="389,315 397,315 393,320" fill="#f59e0b"/>
</g>
<g>
<title>Dia 14: 0 commits</title>
<line x1="423" y1="50" x2="423" y2="290" stroke="#334155" stroke-width="0.5" stroke-dasharray="2,4"/>
<rect x="410" y="250" width="26" height="40" fill="none" stroke="#475569" stroke-width="1" stroke-dasharray="3,3" rx="1"/>
<line x1="423" y1="250" x2="423" y2="238" stroke="#64748b" stroke-width="1.5"/>
<line x1="423" y1="238" x2="433" y2="238" stroke="#64748b" stroke-width="1.5"/>
<text x="423" y="310" text-anchor="middle" font-size="10" fill="#94a3b8" font-weight="normal" font-family="monospace">14</text>
</g>
<g>
<title>Dia 15: 0 commits</title>
<line x1="453" y1="50" x2="453" y2="290" stroke="#334155" stroke-width="0.5" stroke-dasharray="2,4"/>
<rect x="440" y="250" width="26" height="40" fill="none" stroke="#475569" stroke-width="1" stroke-dasharray="3,3" rx="1"/>
<line x1="453" y1="250" x2="453" y2="238" stroke="#64748b" stroke-width="1.5"/>
<line x1="453" y1="238" x2="463" y2="238" stroke="#64748b" stroke-width="1.5"/>
<text x="453" y="310" text-anchor="middle" font-size="10" fill="#94a3b8" font-weight="normal" font-family="monospace">15</text>
</g>
<g>
<title>Dia 16: 0 commits</title>
<line x1="483" y1="50" x2="483" y2="290" stroke="#334155" stroke-width="0.5" stroke-dasharray="2,4"/>
<rect x="470" y="250" width="26" height="40" fill="none" stroke="#475569" stroke-width="1" stroke-dasharray="3,3" rx="1"/>
<line x1="483" y1="250" x2="483" y2="238" stroke="#64748b" stroke-width="1.5"/>
<line x1="483" y1="238" x2="493" y2="238" stroke="#64748b" stroke-width="1.5"/>
<text x="483" y="310" text-anchor="middle" font-size="10" fill="#94a3b8" font-weight="normal" font-family="monospace">16</text>
</g>
<g>
<title>Dia 17: 0 commits</title>
<line x1="513" y1="50" x2="513" y2="290" stroke="#334155" stroke-width="0.5" stroke-dasharray="2,4"/>
<rect x="500" y="250" width="26" height="40" fill="none" stroke="#475569" stroke-width="1" stroke-dasharray="3,3" rx="1"/>
<line x1="513" y1="250" x2="513" y2="238" stroke="#64748b" stroke-width="1.5"/>
<line x1="513" y1="238" x2="523" y2="238" stroke="#64748b" stroke-width="1.5"/>
<text x="513" y="310" text-anchor="middle" font-size="10" fill="#94a3b8" font-weight="normal" font-family="monospace">17</text>
</g>
<g>
<title>Dia 18: 0 commits</title>
<line x1="543" y1="50" x2="543" y2="290" stroke="#334155" stroke-width="0.5" stroke-dasharray="2,4"/>
<rect x="530" y="250" width="26" height="40" fill="none" stroke="#475569" stroke-width="1" stroke-dasharray="3,3" rx="1"/>
<line x1="543" y1="250" x2="543" y2="238" stroke="#64748b" stroke-width="1.5"/>
<line x1="543" y1="238" x2="553" y2="238" stroke="#64748b" stroke-width="1.5"/>
<text x="543" y="310" text-anchor="middle" font-size="10" fill="#94a3b8" font-weight="normal" font-family="monospace">18</text>
</g>
<g>
<title>Dia 19: 0 commits</title>
<line x1="573" y1="50" x2="573" y2="290" stroke="#334155" stroke-width="0.5" stroke-dasharray="2,4"/>
<rect x="560" y="250" width="26" height="40" fill="none" stroke="#475569" stroke-width="1" stroke-dasharray="3,3" rx="1"/>
<line x1="573" y1="250" x2="573" y2="238" stroke="#64748b" stroke-width="1.5"/>
<line x1="573" y1="238" x2="583" y2="238" stroke="#64748b" stroke-width="1.5"/>
<text x="573" y="310" text-anchor="middle" font-size="10" fill="#94a3b8" font-weight="normal" font-family="monospace">19</text>
</g>
<g>
<title>Dia 20: 0 commits</title>
<line x1="603" y1="50" x2="603" y2="290" stroke="#334155" stroke-width="0.5" stroke-dasharray="2,4"/>
<rect x="590" y="250" width="26" height="40" fill="none" stroke="#475569" stroke-width="1" stroke-dasharray="3,3" rx="1"/>
<line x1="603" y1="250" x2="603" y2="238" stroke="#64748b" stroke-width="1.5"/>
<line x1="603" y1="238" x2="613" y2="238" stroke="#64748b" stroke-width="1.5"/>
<text x="603" y="310" text-anchor="middle" font-size="10" fill="#94a3b8" font-weight="normal" font-family="monospace">20</text>
</g>
<g>
<title>Dia 21: 0 commits</title>
<line x1="633" y1="50" x2="633" y2="290" stroke="#334155" stroke-width="0.5" stroke-dasharray="2,4"/>
<rect x="620" y="250" width="26" height="40" fill="none" stroke="#475569" stroke-width="1" stroke-dasharray="3,3" rx="1"/>
<line x1="633" y1="250" x2="633" y2="238" stroke="#64748b" stroke-width="1.5"/>
<line x1="633" y1="238" x2="643" y2="238" stroke="#64748b" stroke-width="1.5"/>
<text x="633" y="310" text-anchor="middle" font-size="10" fill="#94a3b8" font-weight="normal" font-family="monospace">21</text>
</g>
<g>
<title>Dia 22: 0 commits</title>
<line x1="663" y1="50" x2="663" y2="290" stroke="#334155" stroke-width="0.5" stroke-dasharray="2,4"/>
<rect x="650" y="250" width="26" height="40" fill="none" stroke="#475569" stroke-width="1" stroke-dasharray="3,3" rx="1"/>
<line x1="663" y1="250" x2="663" y2="238" stroke="#64748b" stroke-width="1.5"/>
<line x1="663" y1="238" x2="673" y2="238" stroke="#64748b" stroke-width="1.5"/>
<text x="663" y="310" text-anchor="middle" font-size="10" fill="#94a3b8" font-weight="normal" font-family="monospace">22</text>
</g>
<g>
<title>Dia 23: 0 commits</title>
<line x1="693" y1="50" x2="693" y2="290" stroke="#334155" stroke-width="0.5" stroke-dasharray="2,4"/>
<rect x="680" y="250" width="26" height="40" fill="none" stroke="#475569" stroke-width="1" stroke-dasharray="3,3" rx="1"/>
<line x1="693" y1="250" x2="693" y2="238" stroke="#64748b" stroke-width="1.5"/>
<line x1="693" y1="238" x2="703" y2="238" stroke="#64748b" stroke-width="1.5"/>
<text x="693" y="310" text-anchor="middle" font-size="10" fill="#94a3b8" font-weight="normal" font-family="monospace">23</text>
</g>
<g>
<title>Dia 24: 0 commits</title>
<line x1="723" y1="50" x2="723" y2="290" stroke="#334155" stroke-width="0.5" stroke-dasharray="2,4"/>
<rect x="710" y="250" width="26" height="40" fill="none" stroke="#475569" stroke-width="1" stroke-dasharray="3,3" rx="1"/>
<line x1="723" y1="250" x2="723" y2="238" stroke="#64748b" stroke-width="1.5"/>
<line x1="723" y1="238" x2="733" y2="238" stroke="#64748b" stroke-width="1.5"/>
<text x="723" y="310" text-anchor="middle" font-size="10" fill="#94a3b8" font-weight="normal" font-family="monospace">24</text>
</g>
<g>
<title>Dia 25: 0 commits</title>
<line x1="753" y1="50" x2="753" y2="290" stroke="#334155" stroke-width="0.5" stroke-dasharray="2,4"/>
<rect x="740" y="250" width="26" height="40" fill="none" stroke="#475569" stroke-width="1" stroke-dasharray="3,3" rx="1"/>
<line x1="753" y1="250" x2="753" y2="238" stroke="#64748b" stroke-width="1.5"/>
<line x1="753" y1="238" x2="763" y2="238" stroke="#64748b" stroke-width="1.5"/>
<text x="753" y="310" text-anchor="middle" font-size="10" fill="#94a3b8" font-weight="normal" font-family="monospace">25</text>
</g>
<g>
<title>Dia 26: 0 commits</title>
<line x1="783" y1="50" x2="783" y2="290" stroke="#334155" stroke-width="0.5" stroke-dasharray="2,4"/>
<rect x="770" y="250" width="26" height="40" fill="none" stroke="#475569" stroke-width="1" stroke-dasharray="3,3" rx="1"/>
<line x1="783" y1="250" x2="783" y2="238" stroke="#64748b" stroke-width="1.5"/>
<line x1="783" y1="238" x2="793" y2="238" stroke="#64748b" stroke-width="1.5"/>
<text x="783" y="310" text-anchor="middle" font-size="10" fill="#94a3b8" font-weight="normal" font-family="monospace">26</text>
</g>
<g>
<title>Dia 27: 0 commits</title>
<line x1="813" y1="50" x2="813" y2="290" stroke="#334155" stroke-width="0.5" stroke-dasharray="2,4"/>
<rect x="800" y="250" width="26" height="40" fill="none" stroke="#475569" stroke-width="1" stroke-dasharray="3,3" rx="1"/>
<line x1="813" y1="250" x2="813" y2="238" stroke="#64748b" stroke-width="1.5"/>
<line x1="813" y1="238" x2="823" y2="238" stroke="#64748b" stroke-width="1.5"/>
<text x="813" y="310" text-anchor="middle" font-size="10" fill="#94a3b8" font-weight="normal" font-family="monospace">27</text>
</g>
<g>
<title>Dia 28: 0 commits</title>
<line x1="843" y1="50" x2="843" y2="290" stroke="#334155" stroke-width="0.5" stroke-dasharray="2,4"/>
<rect x="830" y="250" width="26" height="40" fill="none" stroke="#475569" stroke-width="1" stroke-dasharray="3,3" rx="1"/>
<line x1="843" y1="250" x2="843" y2="238" stroke="#64748b" stroke-width="1.5"/>
<line x1="843" y1="238" x2="853" y2="238" stroke="#64748b" stroke-width="1.5"/>
<text x="843" y="310" text-anchor="middle" font-size="10" fill="#94a3b8" font-weight="normal" font-family="monospace">28</text>
</g>
<g>
<title>Dia 29: 0 commits</title>
<line x1="873" y1="50" x2="873" y2="290" stroke="#334155" stroke-width="0.5" stroke-dasharray="2,4"/>
<rect x="860" y="250" width="26" height="40" fill="none" stroke="#475569" stroke-width="1" stroke-dasharray="3,3" rx="1"/>
<line x1="873" y1="250" x2="873" y2="238" stroke="#64748b" stroke-width="1.5"/>
<line x1="873" y1="238" x2="883" y2="238" stroke="#64748b" stroke-width="1.5"/>
<text x="873" y="310" text-anchor="middle" font-size="10" fill="#94a3b8" font-weight="normal" font-family="monospace">29</text>
</g>
<g>
<title>Dia 30: 0 commits</title>
<line x1="903" y1="50" x2="903" y2="290" stroke="#334155" stroke-width="0.5" stroke-dasharray="2,4"/>
<rect x="890" y="250" width="26" height="40" fill="none" stroke="#475569" stroke-width="1" stroke-dasharray="3,3" rx="1"/>
<line x1="903" y1="250" x2="903" y2="238" stroke="#64748b" stroke-width="1.5"/>
<line x1="903" y1="238" x2="913" y2="238" stroke="#64748b" stroke-width="1.5"/>
<text x="903" y="310" text-anchor="middle" font-size="10" fill="#94a3b8" font-weight="normal" font-family="monospace">30</text>
</g>
<!-- Pessoas andando -->
<g>
  <g>
    <animateTransform attributeName="transform" type="translate" from="1000 294" to="-20 294" dur="25s" repeatCount="indefinite"/>
    <circle cx="0" cy="-6" r="1.8" fill="#ec4899"/>
    <line x1="0" y1="-4.2" x2="0" y2="-1" stroke="#ec4899" stroke-width="1.6"/>
    <line x1="0" y1="-1" x2="-1.2" y2="2" stroke="#ec4899" stroke-width="1.2">
      <animateTransform attributeName="transform" type="rotate" values="15 0 -1; -15 0 -1; 15 0 -1" dur="0.6s" repeatCount="indefinite"/>
    </line>
    <line x1="0" y1="-1" x2="1.2" y2="2" stroke="#ec4899" stroke-width="1.2">
      <animateTransform attributeName="transform" type="rotate" values="-15 0 -1; 15 0 -1; -15 0 -1" dur="0.6s" repeatCount="indefinite"/>
    </line>
  </g>
  <g>
    <animateTransform attributeName="transform" type="translate" from="-100 294" to="1000 294" dur="22s" repeatCount="indefinite"/>
    <circle cx="0" cy="-6" r="1.8" fill="#14b8a6"/>
    <line x1="0" y1="-4.2" x2="0" y2="-1" stroke="#14b8a6" stroke-width="1.6"/>
    <line x1="0" y1="-1" x2="-1.2" y2="2" stroke="#14b8a6" stroke-width="1.2">
      <animateTransform attributeName="transform" type="rotate" values="15 0 -1; -15 0 -1; 15 0 -1" dur="0.5s" repeatCount="indefinite"/>
    </line>
    <line x1="0" y1="-1" x2="1.2" y2="2" stroke="#14b8a6" stroke-width="1.2">
      <animateTransform attributeName="transform" type="rotate" values="-15 0 -1; 15 0 -1; -15 0 -1" dur="0.5s" repeatCount="indefinite"/>
    </line>
  </g>
  <g>
    <animateTransform attributeName="transform" type="translate" from="1100 294" to="-20 294" dur="28s" repeatCount="indefinite"/>
    <circle cx="0" cy="-6" r="1.8" fill="#a855f7"/>
    <line x1="0" y1="-4.2" x2="0" y2="-1" stroke="#a855f7" stroke-width="1.6"/>
    <line x1="0" y1="-1" x2="-1.2" y2="2" stroke="#a855f7" stroke-width="1.2">
      <animateTransform attributeName="transform" type="rotate" values="15 0 -1; -15 0 -1; 15 0 -1" dur="0.7s" repeatCount="indefinite"/>
    </line>
    <line x1="0" y1="-1" x2="1.2" y2="2" stroke="#a855f7" stroke-width="1.2">
      <animateTransform attributeName="transform" type="rotate" values="-15 0 -1; 15 0 -1; -15 0 -1" dur="0.7s" repeatCount="indefinite"/>
    </line>
  </g>
  <g>
    <animateTransform attributeName="transform" type="translate" from="-220 294" to="1000 294" dur="26s" repeatCount="indefinite"/>
    <circle cx="0" cy="-6" r="1.8" fill="#f97316"/>
    <line x1="0" y1="-4.2" x2="0" y2="-1" stroke="#f97316" stroke-width="1.6"/>
    <line x1="0" y1="-1" x2="-1.2" y2="2" stroke="#f97316" stroke-width="1.2">
      <animateTransform attributeName="transform" type="rotate" values="15 0 -1; -15 0 -1; 15 0 -1" dur="0.6s" repeatCount="indefinite"/>
    </line>
    <line x1="0" y1="-1" x2="1.2" y2="2" stroke="#f97316" stroke-width="1.2">
      <animateTransform attributeName="transform" type="rotate" values="-15 0 -1; 15 0 -1; -15 0 -1" dur="0.6s" repeatCount="indefinite"/>
    </line>
  </g>
</g>
<!-- Carros -->
<g>
  <g>
    <animateTransform attributeName="transform" type="translate" from="1010 300" to="-30 300" dur="12s" repeatCount="indefinite"/>
    <rect x="-11" y="0" width="22" height="7" fill="#ef4444" rx="1.5"/>
    <path d="M -7 0 L -4 -4 L 4 -4 L 7 0 Z" fill="#ef4444"/>
    <path d="M -5 0 L -3 -3 L 3 -3 L 5 0 Z" fill="#e2e8f0" opacity="0.75"/>
    <circle cx="-5" cy="7" r="2.5" fill="#0f172a"/>
    <circle cx="5" cy="7" r="2.5" fill="#0f172a"/>
    <polygon points="-11,2 -26,0 -26,6 -11,5" fill="#fef08a" opacity="var(--car-headlight-glow)"/>
  </g>
  <g>
    <animateTransform attributeName="transform" type="translate" from="-150 311" to="1010 311" dur="10s" repeatCount="indefinite"/>
    <rect x="-11" y="0" width="22" height="7" fill="#3b82f6" rx="1.5"/>
    <path d="M -7 0 L -4 -4 L 4 -4 L 7 0 Z" fill="#3b82f6"/>
    <path d="M -5 0 L -3 -3 L 3 -3 L 5 0 Z" fill="#e2e8f0" opacity="0.75"/>
    <circle cx="-5" cy="7" r="2.5" fill="#0f172a"/>
    <circle cx="5" cy="7" r="2.5" fill="#0f172a"/>
    <polygon points="11,2 26,0 26,6 11,5" fill="#fef08a" opacity="var(--car-headlight-glow)"/>
  </g>
  <g>
    <animateTransform attributeName="transform" type="translate" from="1230 300" to="-30 300" dur="14s" repeatCount="indefinite"/>
    <rect x="-11" y="0" width="22" height="7" fill="#f59e0b" rx="1.5"/>
    <path d="M -7 0 L -4 -4 L 4 -4 L 7 0 Z" fill="#f59e0b"/>
    <path d="M -5 0 L -3 -3 L 3 -3 L 5 0 Z" fill="#e2e8f0" opacity="0.75"/>
    <circle cx="-5" cy="7" r="2.5" fill="#0f172a"/>
    <circle cx="5" cy="7" r="2.5" fill="#0f172a"/>
    <polygon points="-11,2 -26,0 -26,6 -11,5" fill="#fef08a" opacity="var(--car-headlight-glow)"/>
  </g>
  <g>
    <animateTransform attributeName="transform" type="translate" from="-400 311" to="1010 311" dur="13s" repeatCount="indefinite"/>
    <rect x="-11" y="0" width="22" height="7" fill="#10b981" rx="1.5"/>
    <path d="M -7 0 L -4 -4 L 4 -4 L 7 0 Z" fill="#10b981"/>
    <path d="M -5 0 L -3 -3 L 3 -3 L 5 0 Z" fill="#e2e8f0" opacity="0.75"/>
    <circle cx="-5" cy="7" r="2.5" fill="#0f172a"/>
    <circle cx="5" cy="7" r="2.5" fill="#0f172a"/>
    <polygon points="11,2 26,0 26,6 11,5" fill="#fef08a" opacity="var(--car-headlight-glow)"/>
  </g>
</g>
<rect x="20" y="336" width="10" height="8" fill="#1e293b" rx="1" stroke="#475569" stroke-width="0.5"/>
<text x="34" y="343" font-size="9" fill="#94a3b8" font-family="monospace">0 commits</text>
<rect x="165" y="336" width="10" height="8" fill="#16a34a" rx="1" stroke="#475569" stroke-width="0.5"/>
<text x="179" y="343" font-size="9" fill="#94a3b8" font-family="monospace">1 commit (Praça)</text>
<rect x="310" y="336" width="10" height="8" fill="#3b82f6" rx="1" stroke="#475569" stroke-width="0.5"/>
<text x="324" y="343" font-size="9" fill="#94a3b8" font-family="monospace">2-3 commits</text>
<rect x="455" y="336" width="10" height="8" fill="#8b5cf6" rx="1" stroke="#475569" stroke-width="0.5"/>
<text x="469" y="343" font-size="9" fill="#94a3b8" font-family="monospace">4-6 commits</text>
<rect x="600" y="336" width="10" height="8" fill="#0d9488" rx="1" stroke="#475569" stroke-width="0.5"/>
<text x="614" y="343" font-size="9" fill="#94a3b8" font-family="monospace">7-10 commits</text>
<rect x="745" y="336" width="10" height="8" fill="#f59e0b" rx="1" stroke="#475569" stroke-width="0.5"/>
<text x="759" y="343" font-size="9" fill="#94a3b8" font-family="monospace">11+ commits</text>
</svg>